# xmcd CD database file
#
# Track frame offsets:
#	150
#	38121
#	61106
#	84348
#	113948
#	149071
#	161694
#	231258
#	255462
#	281387
#
# Disc length: 4121 seconds
#
# Revision: 0
# Processed by: cddbd v1.5.2PL0 Copyright (c) Steve Scherf et al.
# Submitted via: CDex 1.70beta2
#
DISCID=8510170a
DTITLE=Mark Isham - Miles Remembered: The Silent Way Project
DYEAR=1999
DGENRE=Jazz
TTITLE0=In a Silent Way - Milestone
TTITLE1=Rioght Off (Theme from Jack Johnson)
TTITLE2=Internet
TTITLE3=All Blues
TTITLE4=It's About that Time
TTITLE5=Azael
TTITLE6=Spanish Key
TTITLE7=Ife
TTITLE8=Great Expectations
TTITLE9=Black Satin
EXTD=YEAR: 1999
EXTT0=
EXTT1=
EXTT2=
EXTT3=
EXTT4=
EXTT5=
EXTT6=
EXTT7=
EXTT8=
EXTT9=
PLAYORDER=
